<?xml version="1.0"?>
<svg xmlns:rdf="http://www.w3.org/1999/02/22-rdf-syntax-ns#" xmlns="http://www.w3.org/2000/svg" xmlns:cc="http://creativecommons.org/ns#" xmlns:dc="http://purl.org/dc/elements/1.1/" xmlns:svg="http://www.w3.org/2000/svg" id="Layer_1" style="enable-background:new 0 0 137.152 137.112" space="preserve" viewBox="0 0 137.152 137.112" version="1.1">
  <g id="g3" transform="matrix(-1 0 0 1 137.15 0)">
    <path id="path5" fill="#f60" d="m0 68.534c0 34.94 27.408 65.096 62.231 68.297 34.835 3.203 67.432-21.293 73.804-55.743 6.37-34.441-15.13-69.137-48.886-78.603-33.766-9.468-70.253 8.916-82.705 41.693-2.949 7.763-4.449 16.052-4.449 24.356"/>
    <radialGradient id="XMLID_2_" gradientUnits="userSpaceOnUse" cy="68.533" cx="68.591" r="63.739">
      <stop id="stop8" stop-color="#D4E4F7" offset="0"/>
      <stop id="stop10" stop-color="#7FB5F7" offset="1"/>
    </radialGradient>
    <path id="path12" fill="url(#XMLID_2_)" d="m4.852 68.534c0 34.735 29.003 63.738 63.739 63.738s63.739-29.003 63.739-63.738c0-34.737-29.003-63.74-63.739-63.74-34.738-0.001-63.741 29.003-63.741 63.74"/>
    <path id="path14" fill="#68a0f2" d="m10.998 43.758c-5.15 30.017 12.779 60.171 41.609 69.994 30.578 10.419 64.985-4.98 77.773-34.598-6.145 35.844-43 59.406-78.116 49.93-36.255-9.78-56.207-50.75-41.264-85.322"/>
    <path id="path16" fill="#b3e7fc" d="m28.78 40.238c8.816 1.823 18.965-10.664 26.607-13.841 14.279-5.936 32.116-3.18 45.053 4.903 13.684 8.549 23.416 24.971 24.913 41.092 0.005 0.046 0.005 0.055 0.001 0.024-1.01-9.762-0.328-18.938-4.046-28.375-6.16-15.641-19.48-27.888-35.541-32.809-16.606-5.086-34.765-1.85-49.07 7.845-4.417 2.996-21.42 18.366-7.919 21.161"/>
    <path id="path18" fill="#fff" d="m84.338 37.689v53.182c0 5.415 2.223 15.479-5.697 15.859-6.665 0.323-14.2-8.519-18.897-12.226-7.781-6.136-15.562-12.271-23.344-18.409-7.498-5.913-1.943-10.303 3.605-14.696 8.359-6.618 16.719-13.239 25.078-19.858 2.691-2.131 5.381-4.262 8.072-6.392 2.706-2.144 11.183-2.482 11.183 2.54"/>
    <path id="path20" fill="#5471af" d="m72.999 34.119l-38.541 30.518c-7.945 6.292 0.956 11.834 5.87 15.706 8.696 6.859 17.394 13.72 26.09 20.578 2.133 1.68 4.265 3.361 6.397 5.044 3.913 3.087 12.427 2.059 12.427-4.063v-63.49c0-5.661-8.33-7.393-12.243-4.293m1.122 70.573c-12.718-10.028-25.437-20.058-38.153-30.086-6.768-5.34 1.228-9.827 5.482-13.196 8.387-6.641 16.775-13.284 25.165-19.926 2.367-1.875 4.734-3.751 7.102-5.625 2.272-1.8 9.718-2.276 9.718 2.018v62.621c-0.001 4.661-5.302 7.379-9.314 4.196"/>
  </g>
  <metadata>
    <rdf:RDF>
      <cc:Work>
        <dc:format>image/svg+xml</dc:format>
        <dc:type rdf:resource="http://purl.org/dc/dcmitype/StillImage"/>
        <cc:license rdf:resource="http://creativecommons.org/licenses/publicdomain/"/>
        <dc:publisher>
          <cc:Agent rdf:about="http://openclipart.org/">
            <dc:title>Openclipart</dc:title>
          </cc:Agent>
        </dc:publisher>
        <dc:title>Blue Play Button With Focus</dc:title>
        <dc:date>2011-10-18T13:34:22</dc:date>
        <dc:description>A round blue button with a triangular play symbol with a orange circle to indicate focus.</dc:description>
        <dc:source>http://openclipart.org/detail/164041/blue-play-button-with-focus-by-gr8dan</dc:source>
        <dc:creator>
          <cc:Agent>
            <dc:title>GR8DAN</dc:title>
          </cc:Agent>
        </dc:creator>
        <dc:subject>
          <rdf:Bag>
            <rdf:li>arrow</rdf:li>
            <rdf:li>blue</rdf:li>
            <rdf:li>button</rdf:li>
            <rdf:li>circle</rdf:li>
            <rdf:li>clip art</rdf:li>
            <rdf:li>clipart</rdf:li>
            <rdf:li>focus</rdf:li>
            <rdf:li>go</rdf:li>
            <rdf:li>highlight</rdf:li>
            <rdf:li>light</rdf:li>
            <rdf:li>orange</rdf:li>
            <rdf:li>play</rdf:li>
            <rdf:li>right</rdf:li>
            <rdf:li>round</rdf:li>
            <rdf:li>rounded</rdf:li>
            <rdf:li>start</rdf:li>
            <rdf:li>triangle</rdf:li>
          </rdf:Bag>
        </dc:subject>
      </cc:Work>
      <cc:License rdf:about="http://creativecommons.org/licenses/publicdomain/">
        <cc:permits rdf:resource="http://creativecommons.org/ns#Reproduction"/>
        <cc:permits rdf:resource="http://creativecommons.org/ns#Distribution"/>
        <cc:permits rdf:resource="http://creativecommons.org/ns#DerivativeWorks"/>
      </cc:License>
    </rdf:RDF>
  </metadata>
</svg>
